<?xml version="1.0" encoding="UTF-8"?>
<svg id="Layer_2" data-name="Layer 2" xmlns="http://www.w3.org/2000/svg" viewBox="0 0 92 92">
  <defs>
    <style>
      .cls-1 {
        fill: #fff;
      }

      .cls-2 {
        fill: #038cd8;
      }
    </style>
  </defs>
  <g id="Layer_2-2" data-name="Layer 2">
    <g>
      <circle class="cls-2" cx="46" cy="46" r="46"/>
      <g id="Layer_1-2" data-name="Layer 1-2">
        <g>
          <path class="cls-1" d="M35.32,33.95c0-.78-.36-1.52-1.08-2.22-1.04-.98-2.46-1.48-4.28-1.48-1.59,0-3.36,.34-5.29,1.04-1.01,.36-1.89,.85-2.63,1.48-1.14,.98-1.72,1.98-1.72,2.96,0,1.32,.84,2.52,2.53,3.57,.63,.38,1.89,1.01,3.78,1.86,1.89,.87,3.29,1.56,4.15,2.11,1.32,.81,2.23,1.68,2.75,2.59,.51,.92,.75,1.78,.75,2.56,0,1.12-.37,2.26-1.11,3.43-1.31,2.09-3.22,3.88-5.72,5.39-2.9,1.75-6.39,2.63-10.47,2.63s-7.04-1-9.36-3c-1.79-1.52-2.69-3.49-2.69-5.89,0-1.52,.55-3.22,1.66-5.05s2.48-3.14,4.1-3.91c.34-.13,.58-.18,.75-.13,.17,.04,.03,.26-.43,.64-.97,.77-1.74,1.61-2.32,2.52-1.25,1.98-1.89,4.13-1.89,6.43,0,1.52,.43,2.86,1.28,4.01,1.52,2.05,4.17,3.2,7.95,3.47,.43,.04,1.07,.07,1.91,.07s1.99-.16,3.43-.46c1.45-.3,2.85-.8,4.2-1.49,2.9-1.52,4.77-3.5,5.62-5.93,.27-.71,.4-1.41,.4-2.09,0-1.52-.68-2.87-2.05-4.04-.74-.58-2.25-1.37-4.52-2.33-2.28-.98-3.81-1.72-4.6-2.23-1.74-1.17-2.59-2.55-2.59-4.14,0-1.39,.77-2.75,2.32-4.07,2.22-1.89,5.36-2.83,9.43-2.83,1.91,0,3.46,.28,4.67,.85,1.2,.57,1.93,1.44,2.21,2.58,.04,.23,.07,.46,.07,.67,0,.88-.4,1.66-1.21,2.36-.55,.46-1.31,.81-2.26,1.08-.4,.11-.63,.07-.67-.13-.04-.28,.24-.47,.84-.54,1.08-.13,1.74-.67,1.99-1.62,.07-.24,.1-.48,.1-.71Z"/>
          <path class="cls-1" d="M80,39.27c1.1-2.42,2.05-4.25,2.87-5.51,.83-1.25,1.61-1.99,2.33-2.26,.73-.26,1.22-.38,1.48-.38s.38,.03,.38,.1-.14,.17-.44,.31c-.3,.14-.8,.74-1.49,1.76-.71,1.04-1.59,2.62-2.67,4.75-1.08,2.13-2.02,4.38-2.83,6.77,1.37,0,2.23-.07,2.6-.2s.6-.16,.67-.07c.09,.09-.03,.24-.31,.44-.74,.51-1.84,.83-3.27,.91-.03,.04-.2,.58-.54,1.62-1.12,3.49-1.68,5.92-1.68,7.31,0,.78,.14,1.34,.43,1.65s.58,.47,.9,.47,.67-.13,1.04-.4c1.28-.94,2.69-2.97,4.21-6.09,.18-.38,.36-.54,.53-.47s.16,.3-.01,.71c-.83,1.78-1.52,3.07-2.08,3.91-.55,.83-1.17,1.59-1.86,2.29-.92,.88-1.84,1.31-2.76,1.31-1.04,0-1.75-.43-2.15-1.28-.2-.4-.3-.77-.3-1.11s0-.7,.01-1.07c0-.37,.06-.85,.11-1.45,.07-.6,.23-1.34,.48-2.22s.46-1.56,.61-2.02c.14-.46,.37-1.08,.65-1.86,.28-.78,.46-1.21,.47-1.28-.97,0-4.77-.14-11.41-.44-1.37,4.08-3.53,7.74-6.46,10.97-1.44,1.59-3.12,2.93-5.02,4.01-2.56,1.41-5.25,2.12-8.08,2.12-1.2,0-2.52-.17-3.97-.53-1.47-.34-2.85-1.01-4.14-1.99-1.31-.98-2.23-2.29-2.77-3.96-.55-1.66-.57-3.5-.06-5.52,.27-1.04,.87-1.99,1.81-2.9,.92-.9,1.71-1.35,2.3-1.38,.23,0,.36,.03,.4,.09s.03,.13-.06,.2-.17,.14-.28,.18c-.67,.3-1.37,.92-2.09,1.92-.94,1.31-1.41,2.82-1.41,4.54,0,2.69,1.29,4.69,3.91,6.03,1.56,.78,3.41,1.18,5.52,1.18,.92,0,1.78-.09,2.59-.27,7.61-1.71,12.96-6.63,16.06-14.78-.58,0-1.15,.13-1.71,.38s-.91,.38-1.08,.38-.27-.07-.28-.2c0-.38,.27-.74,.81-1.1,.54-.34,1.01-.54,1.41-.58h1.31c1.44-3.59,3.07-7.23,4.92-10.91-.58,.07-1.41,.14-2.49,.24-1.08,.09-1.95,.17-2.63,.24s-1.51,.18-2.49,.34-1.81,.34-2.46,.55-1.38,.51-2.18,.9c-.8,.38-1.47,.83-2.01,1.31-1.28,1.21-2.19,2.69-2.73,4.44-.23,.73-.34,1.48-.34,2.29s.28,1.59,.88,2.36c.58,.77,1.35,1.14,2.32,1.14,1.91,0,3.27-1.1,4.07-3.3,.38-1.04,.57-1.75,.57-2.18s-.07-.73-.21-.94c-.14-.21-.11-.34,.11-.38,.16-.03,.28,.07,.4,.27,.27,.58,.4,1.21,.4,1.89s-.23,1.41-.67,2.19c-.77,1.39-1.79,2.32-3.1,2.79-.63,.23-1.25,.34-1.89,.34s-1.25-.13-1.89-.4c-1.2-.51-2.06-1.39-2.63-2.63-.36-.74-.54-1.45-.54-2.12s.1-1.44,.31-2.3c.21-.87,.64-1.75,1.27-2.65s1.41-1.62,2.36-2.18c.94-.55,1.89-1.01,2.83-1.37s2.06-.63,3.34-.81c1.29-.18,2.42-.31,3.37-.4s2.11-.17,3.46-.24c1.35-.07,2.35-.13,3-.2,.24-.43,.63-.95,1.12-1.56,.51-.61,.94-.98,1.29-1.08s.64-.16,.84-.16c.83,0,1.25,.36,1.25,1.07s-.46,1.29-1.38,1.76-1.78,.71-2.59,.71c-.61,1.17-1.47,3.24-2.58,6.25-1.11,3-1.71,4.57-1.76,4.72,1.68,0,3.86,.1,6.52,.28s4.3,.28,4.89,.28c.46-1.29,1.22-3.16,2.3-5.59h.06Zm-7.08-8.45c-.27,0-.83,.55-1.68,1.65,1.47-.23,2.18-.61,2.15-1.18-.03-.24-.14-.4-.37-.44-.03-.03-.06-.03-.1-.03Z"/>
        </g>
      </g>
    </g>
  </g>
</svg>